<svg width="540" height="1607" viewBox="0 0 540 1607" fill="none" xmlns="http://www.w3.org/2000/svg">
<rect x="139" width="1" height="1607" fill="#F0F0F0"/>
<rect x="160" width="1" height="1607" fill="#F0F0F0"/>
<rect x="139" width="1" height="1607" fill="#F0F0F0"/>
<rect x="219" width="1" height="1607" fill="#F0F0F0"/>
<rect x="240" width="1" height="1607" fill="#F0F0F0"/>
<rect x="299" width="1" height="1607" fill="#F0F0F0"/>
<rect x="240" width="1" height="1607" fill="#F0F0F0"/>
<rect x="320" width="1" height="1607" fill="#F0F0F0"/>
<rect x="379" width="1" height="1607" fill="#F0F0F0"/>
<rect x="400" width="1" height="1607" fill="#F0F0F0"/>
<rect x="379" width="1" height="1607" fill="#F0F0F0"/>
<rect x="459" width="1" height="1607" fill="#F0F0F0"/>
<rect x="480" width="1" height="1607" fill="#F0F0F0"/>
<rect x="539" width="1" height="1607" fill="#F0F0F0"/>
<rect x="480" width="1" height="1607" fill="#F0F0F0"/>
<rect x="139" width="1" height="1607" fill="#F0F0F0"/>
<rect x="160" width="1" height="1607" fill="#F0F0F0"/>
<rect x="139" width="1" height="1607" fill="#F0F0F0"/>
<rect x="59" width="1" height="1607" fill="#F0F0F0"/>
<rect x="80" width="1" height="1607" fill="#F0F0F0"/>
<rect x="59" width="1" height="1607" fill="#F0F0F0"/>
<rect x="59" width="1" height="1607" fill="#F0F0F0"/>
<rect x="80" width="1" height="1607" fill="#F0F0F0"/>
<rect x="59" width="1" height="1607" fill="#F0F0F0"/>
<rect width="1" height="1607" fill="#F0F0F0"/>
<rect width="1" height="1607" fill="#F0F0F0"/>
<rect width="1" height="1607" fill="#F0F0F0"/>
<rect width="1" height="1607" fill="#F0F0F0"/>
</svg>
